<mxfile host="Electron" agent="Mozilla/5.0 (Windows NT 10.0; Win64; x64) AppleWebKit/537.36 (KHTML, like Gecko) draw.io/24.7.17 Chrome/128.0.6613.36 Electron/32.0.1 Safari/537.36" version="24.7.17">
  <diagram id="C5RBs43oDa-KdzZeNtuy" name="Page-1">
    <mxGraphModel dx="2736" dy="1129" grid="0" gridSize="10" guides="1" tooltips="1" connect="1" arrows="1" fold="1" page="1" pageScale="1" pageWidth="827" pageHeight="1169" math="0" shadow="0">
      <root>
        <mxCell id="WIyWlLk6GJQsqaUBKTNV-0" />
        <mxCell id="WIyWlLk6GJQsqaUBKTNV-1" parent="WIyWlLk6GJQsqaUBKTNV-0" />
        <mxCell id="1M9hGgyov5NjB-ZIpMgV-0" value="Flowchart Program To Do List" style="text;html=1;align=center;verticalAlign=middle;resizable=0;points=[];autosize=1;strokeColor=none;fillColor=none;fontSize=26;fontStyle=1;fontFamily=Times New Roman;" parent="WIyWlLk6GJQsqaUBKTNV-1" vertex="1">
          <mxGeometry x="-106" y="44" width="340" height="40" as="geometry" />
        </mxCell>
        <mxCell id="rsrEm_uVniqUEUr3GIda-96" style="edgeStyle=orthogonalEdgeStyle;rounded=0;orthogonalLoop=1;jettySize=auto;html=1;entryX=0.5;entryY=0;entryDx=0;entryDy=0;" edge="1" parent="WIyWlLk6GJQsqaUBKTNV-1" source="1M9hGgyov5NjB-ZIpMgV-5" target="rsrEm_uVniqUEUr3GIda-0">
          <mxGeometry relative="1" as="geometry" />
        </mxCell>
        <mxCell id="1M9hGgyov5NjB-ZIpMgV-5" value="&lt;font style=&quot;font-size: 15px;&quot;&gt;Start&lt;/font&gt;" style="strokeWidth=2;html=1;shape=mxgraph.flowchart.terminator;whiteSpace=wrap;fillColor=#f5f5f5;strokeColor=#666666;fontColor=#333333;" parent="WIyWlLk6GJQsqaUBKTNV-1" vertex="1">
          <mxGeometry x="24" y="120" width="80" height="40" as="geometry" />
        </mxCell>
        <mxCell id="rsrEm_uVniqUEUr3GIda-2" style="edgeStyle=orthogonalEdgeStyle;rounded=0;orthogonalLoop=1;jettySize=auto;html=1;" edge="1" parent="WIyWlLk6GJQsqaUBKTNV-1">
          <mxGeometry relative="1" as="geometry">
            <mxPoint x="130" y="261" as="targetPoint" />
            <mxPoint x="97.99999999999996" y="260.99999999999994" as="sourcePoint" />
          </mxGeometry>
        </mxCell>
        <mxCell id="rsrEm_uVniqUEUr3GIda-101" style="edgeStyle=orthogonalEdgeStyle;rounded=0;orthogonalLoop=1;jettySize=auto;html=1;entryX=0.5;entryY=0;entryDx=0;entryDy=0;" edge="1" parent="WIyWlLk6GJQsqaUBKTNV-1" source="rsrEm_uVniqUEUr3GIda-0" target="rsrEm_uVniqUEUr3GIda-97">
          <mxGeometry relative="1" as="geometry" />
        </mxCell>
        <mxCell id="rsrEm_uVniqUEUr3GIda-0" value="Tampilan awal&lt;div&gt;program&lt;/div&gt;" style="shape=parallelogram;html=1;strokeWidth=2;perimeter=parallelogramPerimeter;whiteSpace=wrap;rounded=1;arcSize=12;size=0.23;fillColor=#dae8fc;strokeColor=#6c8ebf;" vertex="1" parent="WIyWlLk6GJQsqaUBKTNV-1">
          <mxGeometry x="-1" y="212" width="130" height="50" as="geometry" />
        </mxCell>
        <mxCell id="rsrEm_uVniqUEUr3GIda-102" style="edgeStyle=orthogonalEdgeStyle;rounded=0;orthogonalLoop=1;jettySize=auto;html=1;" edge="1" parent="WIyWlLk6GJQsqaUBKTNV-1" source="rsrEm_uVniqUEUr3GIda-97" target="rsrEm_uVniqUEUr3GIda-100">
          <mxGeometry relative="1" as="geometry" />
        </mxCell>
        <mxCell id="rsrEm_uVniqUEUr3GIda-97" value="gagal_login = 0&lt;div&gt;data_tugas = {}&lt;/div&gt;" style="shape=internalStorage;whiteSpace=wrap;html=1;dx=15;dy=15;rounded=1;arcSize=8;strokeWidth=2;fillColor=#fffaeb;strokeColor=#d6b656;" vertex="1" parent="WIyWlLk6GJQsqaUBKTNV-1">
          <mxGeometry x="-3.5" y="300" width="135" height="67" as="geometry" />
        </mxCell>
        <mxCell id="rsrEm_uVniqUEUr3GIda-106" style="edgeStyle=orthogonalEdgeStyle;rounded=0;orthogonalLoop=1;jettySize=auto;html=1;" edge="1" parent="WIyWlLk6GJQsqaUBKTNV-1" source="rsrEm_uVniqUEUr3GIda-100" target="rsrEm_uVniqUEUr3GIda-104">
          <mxGeometry relative="1" as="geometry" />
        </mxCell>
        <mxCell id="rsrEm_uVniqUEUr3GIda-266" style="edgeStyle=orthogonalEdgeStyle;rounded=0;orthogonalLoop=1;jettySize=auto;html=1;entryX=0.5;entryY=0;entryDx=0;entryDy=0;entryPerimeter=0;" edge="1" parent="WIyWlLk6GJQsqaUBKTNV-1" source="rsrEm_uVniqUEUr3GIda-100" target="rsrEm_uVniqUEUr3GIda-267">
          <mxGeometry relative="1" as="geometry">
            <mxPoint x="-66" y="1641.5001220703125" as="targetPoint" />
          </mxGeometry>
        </mxCell>
        <mxCell id="rsrEm_uVniqUEUr3GIda-100" value="While True" style="verticalLabelPosition=middle;verticalAlign=middle;html=1;shape=hexagon;perimeter=hexagonPerimeter2;arcSize=6;size=0.27;whiteSpace=wrap;labelPosition=center;align=center;fillColor=#f8cecc;strokeColor=#b85450;" vertex="1" parent="WIyWlLk6GJQsqaUBKTNV-1">
          <mxGeometry x="-15" y="410" width="158" height="59" as="geometry" />
        </mxCell>
        <mxCell id="rsrEm_uVniqUEUr3GIda-103" style="edgeStyle=orthogonalEdgeStyle;rounded=0;orthogonalLoop=1;jettySize=auto;html=1;" edge="1" parent="WIyWlLk6GJQsqaUBKTNV-1">
          <mxGeometry relative="1" as="geometry">
            <mxPoint x="339" y="463.57" as="targetPoint" />
            <mxPoint x="306.99999999999994" y="463.56999999999994" as="sourcePoint" />
          </mxGeometry>
        </mxCell>
        <mxCell id="rsrEm_uVniqUEUr3GIda-110" style="edgeStyle=orthogonalEdgeStyle;rounded=0;orthogonalLoop=1;jettySize=auto;html=1;" edge="1" parent="WIyWlLk6GJQsqaUBKTNV-1" source="rsrEm_uVniqUEUr3GIda-104" target="rsrEm_uVniqUEUr3GIda-109">
          <mxGeometry relative="1" as="geometry" />
        </mxCell>
        <mxCell id="rsrEm_uVniqUEUr3GIda-104" value="Menu pilihan&lt;div&gt;login&lt;/div&gt;" style="shape=parallelogram;html=1;strokeWidth=2;perimeter=parallelogramPerimeter;whiteSpace=wrap;rounded=1;arcSize=12;size=0.23;fillColor=#dae8fc;strokeColor=#6c8ebf;" vertex="1" parent="WIyWlLk6GJQsqaUBKTNV-1">
          <mxGeometry x="208" y="414.5" width="130" height="50" as="geometry" />
        </mxCell>
        <mxCell id="rsrEm_uVniqUEUr3GIda-108" style="edgeStyle=orthogonalEdgeStyle;rounded=0;orthogonalLoop=1;jettySize=auto;html=1;" edge="1" parent="WIyWlLk6GJQsqaUBKTNV-1">
          <mxGeometry relative="1" as="geometry">
            <mxPoint x="421" y="415" as="targetPoint" />
            <mxPoint x="388.99999999999994" y="414.99999999999994" as="sourcePoint" />
          </mxGeometry>
        </mxCell>
        <mxCell id="rsrEm_uVniqUEUr3GIda-109" value="pilihan login" style="shape=parallelogram;html=1;strokeWidth=2;perimeter=parallelogramPerimeter;whiteSpace=wrap;rounded=1;arcSize=12;size=0.23;fillColor=#dae8fc;strokeColor=#6c8ebf;" vertex="1" parent="WIyWlLk6GJQsqaUBKTNV-1">
          <mxGeometry x="391" y="414.5" width="130" height="50" as="geometry" />
        </mxCell>
        <mxCell id="rsrEm_uVniqUEUr3GIda-130" style="edgeStyle=orthogonalEdgeStyle;rounded=0;orthogonalLoop=1;jettySize=auto;html=1;entryX=0.5;entryY=0;entryDx=0;entryDy=0;" edge="1" parent="WIyWlLk6GJQsqaUBKTNV-1" source="rsrEm_uVniqUEUr3GIda-112" target="rsrEm_uVniqUEUr3GIda-126">
          <mxGeometry relative="1" as="geometry" />
        </mxCell>
        <mxCell id="rsrEm_uVniqUEUr3GIda-225" style="edgeStyle=orthogonalEdgeStyle;rounded=0;orthogonalLoop=1;jettySize=auto;html=1;entryX=0;entryY=0.5;entryDx=0;entryDy=0;" edge="1" parent="WIyWlLk6GJQsqaUBKTNV-1" source="rsrEm_uVniqUEUr3GIda-112" target="rsrEm_uVniqUEUr3GIda-223">
          <mxGeometry relative="1" as="geometry" />
        </mxCell>
        <mxCell id="rsrEm_uVniqUEUr3GIda-112" value="Sebagai Admin?" style="strokeWidth=2;html=1;shape=mxgraph.flowchart.decision;whiteSpace=wrap;fillColor=#ffe6cc;strokeColor=#d79b00;" vertex="1" parent="WIyWlLk6GJQsqaUBKTNV-1">
          <mxGeometry x="416" y="509" width="80" height="80" as="geometry" />
        </mxCell>
        <mxCell id="rsrEm_uVniqUEUr3GIda-113" value="No" style="text;html=1;align=center;verticalAlign=middle;resizable=0;points=[];autosize=1;strokeColor=none;fillColor=none;" vertex="1" parent="WIyWlLk6GJQsqaUBKTNV-1">
          <mxGeometry x="496" y="517" width="40" height="30" as="geometry" />
        </mxCell>
        <mxCell id="rsrEm_uVniqUEUr3GIda-114" value="Yes" style="text;html=1;align=center;verticalAlign=middle;resizable=0;points=[];autosize=1;strokeColor=none;fillColor=none;" vertex="1" parent="WIyWlLk6GJQsqaUBKTNV-1">
          <mxGeometry x="379" y="519" width="40" height="30" as="geometry" />
        </mxCell>
        <mxCell id="rsrEm_uVniqUEUr3GIda-115" style="edgeStyle=orthogonalEdgeStyle;rounded=0;orthogonalLoop=1;jettySize=auto;html=1;entryX=0.5;entryY=0;entryDx=0;entryDy=0;entryPerimeter=0;" edge="1" parent="WIyWlLk6GJQsqaUBKTNV-1" source="rsrEm_uVniqUEUr3GIda-109" target="rsrEm_uVniqUEUr3GIda-112">
          <mxGeometry relative="1" as="geometry" />
        </mxCell>
        <mxCell id="rsrEm_uVniqUEUr3GIda-125" value="" style="edgeStyle=orthogonalEdgeStyle;rounded=0;orthogonalLoop=1;jettySize=auto;html=1;" edge="1" source="rsrEm_uVniqUEUr3GIda-126" target="rsrEm_uVniqUEUr3GIda-127" parent="WIyWlLk6GJQsqaUBKTNV-1">
          <mxGeometry relative="1" as="geometry" />
        </mxCell>
        <mxCell id="rsrEm_uVniqUEUr3GIda-126" value="Input Login Admin" style="rounded=1;whiteSpace=wrap;html=1;absoluteArcSize=1;arcSize=14;strokeWidth=2;fillColor=#d5e8d4;strokeColor=#82b366;" vertex="1" parent="WIyWlLk6GJQsqaUBKTNV-1">
          <mxGeometry x="301" y="611" width="90" height="40" as="geometry" />
        </mxCell>
        <mxCell id="rsrEm_uVniqUEUr3GIda-138" style="edgeStyle=orthogonalEdgeStyle;rounded=0;orthogonalLoop=1;jettySize=auto;html=1;entryX=1;entryY=0.75;entryDx=0;entryDy=0;" edge="1" parent="WIyWlLk6GJQsqaUBKTNV-1" source="rsrEm_uVniqUEUr3GIda-127" target="rsrEm_uVniqUEUr3GIda-132">
          <mxGeometry relative="1" as="geometry" />
        </mxCell>
        <mxCell id="rsrEm_uVniqUEUr3GIda-144" style="edgeStyle=orthogonalEdgeStyle;rounded=0;orthogonalLoop=1;jettySize=auto;html=1;exitX=0.5;exitY=1;exitDx=0;exitDy=0;exitPerimeter=0;entryX=0.5;entryY=0;entryDx=0;entryDy=0;" edge="1" parent="WIyWlLk6GJQsqaUBKTNV-1" source="rsrEm_uVniqUEUr3GIda-127" target="rsrEm_uVniqUEUr3GIda-142">
          <mxGeometry relative="1" as="geometry" />
        </mxCell>
        <mxCell id="rsrEm_uVniqUEUr3GIda-127" value="Login Berhasil?" style="strokeWidth=2;html=1;shape=mxgraph.flowchart.decision;whiteSpace=wrap;fillColor=#ffe6cc;strokeColor=#d79b00;" vertex="1" parent="WIyWlLk6GJQsqaUBKTNV-1">
          <mxGeometry x="306" y="701" width="80" height="80" as="geometry" />
        </mxCell>
        <mxCell id="rsrEm_uVniqUEUr3GIda-128" value="No" style="text;html=1;align=center;verticalAlign=middle;resizable=0;points=[];autosize=1;strokeColor=none;fillColor=none;" vertex="1" parent="WIyWlLk6GJQsqaUBKTNV-1">
          <mxGeometry x="274" y="711" width="40" height="30" as="geometry" />
        </mxCell>
        <mxCell id="rsrEm_uVniqUEUr3GIda-129" value="Yes" style="text;html=1;align=center;verticalAlign=middle;resizable=0;points=[];autosize=1;strokeColor=none;fillColor=none;" vertex="1" parent="WIyWlLk6GJQsqaUBKTNV-1">
          <mxGeometry x="346" y="781" width="40" height="30" as="geometry" />
        </mxCell>
        <mxCell id="rsrEm_uVniqUEUr3GIda-131" value="" style="edgeStyle=orthogonalEdgeStyle;rounded=0;orthogonalLoop=1;jettySize=auto;html=1;" edge="1" target="rsrEm_uVniqUEUr3GIda-133" parent="WIyWlLk6GJQsqaUBKTNV-1">
          <mxGeometry relative="1" as="geometry">
            <mxPoint x="127.00000000000091" y="713.25" as="sourcePoint" />
          </mxGeometry>
        </mxCell>
        <mxCell id="rsrEm_uVniqUEUr3GIda-132" value="Gagal login sebagai admin" style="shape=parallelogram;html=1;strokeWidth=2;perimeter=parallelogramPerimeter;whiteSpace=wrap;rounded=1;arcSize=12;size=0.23;fontSize=12;fillColor=#dae8fc;strokeColor=#6c8ebf;" vertex="1" parent="WIyWlLk6GJQsqaUBKTNV-1">
          <mxGeometry x="58" y="713.25" width="210" height="42.5" as="geometry" />
        </mxCell>
        <mxCell id="rsrEm_uVniqUEUr3GIda-139" style="edgeStyle=orthogonalEdgeStyle;rounded=0;orthogonalLoop=1;jettySize=auto;html=1;entryX=0;entryY=0.5;entryDx=0;entryDy=0;" edge="1" parent="WIyWlLk6GJQsqaUBKTNV-1" source="rsrEm_uVniqUEUr3GIda-133" target="rsrEm_uVniqUEUr3GIda-126">
          <mxGeometry relative="1" as="geometry" />
        </mxCell>
        <mxCell id="rsrEm_uVniqUEUr3GIda-140" style="edgeStyle=orthogonalEdgeStyle;rounded=0;orthogonalLoop=1;jettySize=auto;html=1;entryX=1;entryY=0.75;entryDx=0;entryDy=0;" edge="1" parent="WIyWlLk6GJQsqaUBKTNV-1" source="rsrEm_uVniqUEUr3GIda-133" target="rsrEm_uVniqUEUr3GIda-100">
          <mxGeometry relative="1" as="geometry" />
        </mxCell>
        <mxCell id="rsrEm_uVniqUEUr3GIda-133" value="Lanjut login&lt;div&gt;sebagai&lt;/div&gt;&lt;div&gt;admin?&lt;/div&gt;" style="strokeWidth=2;html=1;shape=mxgraph.flowchart.decision;whiteSpace=wrap;fillColor=#ffe6cc;strokeColor=#d79b00;" vertex="1" parent="WIyWlLk6GJQsqaUBKTNV-1">
          <mxGeometry x="74" y="586" width="105" height="91" as="geometry" />
        </mxCell>
        <mxCell id="rsrEm_uVniqUEUr3GIda-134" value="No" style="text;html=1;align=center;verticalAlign=middle;resizable=0;points=[];autosize=1;strokeColor=none;fillColor=none;" vertex="1" parent="WIyWlLk6GJQsqaUBKTNV-1">
          <mxGeometry x="89" y="559" width="40" height="30" as="geometry" />
        </mxCell>
        <mxCell id="rsrEm_uVniqUEUr3GIda-135" value="Yes" style="text;html=1;align=center;verticalAlign=middle;resizable=0;points=[];autosize=1;strokeColor=none;fillColor=none;" vertex="1" parent="WIyWlLk6GJQsqaUBKTNV-1">
          <mxGeometry x="176" y="600" width="40" height="30" as="geometry" />
        </mxCell>
        <mxCell id="rsrEm_uVniqUEUr3GIda-141" value="True" style="text;html=1;align=center;verticalAlign=middle;resizable=0;points=[];autosize=1;strokeColor=none;fillColor=none;" vertex="1" parent="WIyWlLk6GJQsqaUBKTNV-1">
          <mxGeometry x="134" y="411.25" width="42" height="26" as="geometry" />
        </mxCell>
        <mxCell id="rsrEm_uVniqUEUr3GIda-216" style="edgeStyle=orthogonalEdgeStyle;rounded=0;orthogonalLoop=1;jettySize=auto;html=1;" edge="1" parent="WIyWlLk6GJQsqaUBKTNV-1" target="rsrEm_uVniqUEUr3GIda-181">
          <mxGeometry relative="1" as="geometry">
            <mxPoint x="424.95746759720805" y="864.5294117647061" as="sourcePoint" />
          </mxGeometry>
        </mxCell>
        <mxCell id="rsrEm_uVniqUEUr3GIda-261" style="edgeStyle=orthogonalEdgeStyle;rounded=0;orthogonalLoop=1;jettySize=auto;html=1;entryX=0.375;entryY=1;entryDx=0;entryDy=0;" edge="1" parent="WIyWlLk6GJQsqaUBKTNV-1" source="rsrEm_uVniqUEUr3GIda-142" target="rsrEm_uVniqUEUr3GIda-100">
          <mxGeometry relative="1" as="geometry" />
        </mxCell>
        <mxCell id="rsrEm_uVniqUEUr3GIda-142" value="While True" style="verticalLabelPosition=middle;verticalAlign=middle;html=1;shape=hexagon;perimeter=hexagonPerimeter2;arcSize=6;size=0.27;whiteSpace=wrap;labelPosition=center;align=center;fillColor=#f8cecc;strokeColor=#b85450;" vertex="1" parent="WIyWlLk6GJQsqaUBKTNV-1">
          <mxGeometry x="268" y="837" width="158" height="59" as="geometry" />
        </mxCell>
        <mxCell id="rsrEm_uVniqUEUr3GIda-143" value="True" style="text;html=1;align=center;verticalAlign=middle;resizable=0;points=[];autosize=1;strokeColor=none;fillColor=none;" vertex="1" parent="WIyWlLk6GJQsqaUBKTNV-1">
          <mxGeometry x="416" y="836.25" width="42" height="26" as="geometry" />
        </mxCell>
        <mxCell id="rsrEm_uVniqUEUr3GIda-280" style="edgeStyle=orthogonalEdgeStyle;rounded=0;orthogonalLoop=1;jettySize=auto;html=1;" edge="1" parent="WIyWlLk6GJQsqaUBKTNV-1" source="rsrEm_uVniqUEUr3GIda-181" target="rsrEm_uVniqUEUr3GIda-279">
          <mxGeometry relative="1" as="geometry" />
        </mxCell>
        <mxCell id="rsrEm_uVniqUEUr3GIda-181" value="Menu To Do&lt;div&gt;List&amp;nbsp;&lt;span style=&quot;background-color: initial;&quot;&gt;Admin&lt;/span&gt;&lt;/div&gt;" style="shape=parallelogram;html=1;strokeWidth=2;perimeter=parallelogramPerimeter;whiteSpace=wrap;rounded=1;arcSize=12;size=0.23;fontSize=12;fillColor=#dae8fc;strokeColor=#6c8ebf;" vertex="1" parent="WIyWlLk6GJQsqaUBKTNV-1">
          <mxGeometry x="595.5" y="844" width="131" height="42.5" as="geometry" />
        </mxCell>
        <mxCell id="rsrEm_uVniqUEUr3GIda-182" value="" style="edgeStyle=orthogonalEdgeStyle;rounded=0;orthogonalLoop=1;jettySize=auto;html=1;" edge="1" parent="WIyWlLk6GJQsqaUBKTNV-1" source="rsrEm_uVniqUEUr3GIda-184" target="rsrEm_uVniqUEUr3GIda-186">
          <mxGeometry relative="1" as="geometry" />
        </mxCell>
        <mxCell id="rsrEm_uVniqUEUr3GIda-183" value="" style="edgeStyle=orthogonalEdgeStyle;rounded=0;orthogonalLoop=1;jettySize=auto;html=1;" edge="1" parent="WIyWlLk6GJQsqaUBKTNV-1" source="rsrEm_uVniqUEUr3GIda-184" target="rsrEm_uVniqUEUr3GIda-189">
          <mxGeometry relative="1" as="geometry" />
        </mxCell>
        <mxCell id="rsrEm_uVniqUEUr3GIda-184" value="Tambah Tugas" style="strokeWidth=2;html=1;shape=mxgraph.flowchart.decision;whiteSpace=wrap;fillColor=#ffe6cc;strokeColor=#d79b00;" vertex="1" parent="WIyWlLk6GJQsqaUBKTNV-1">
          <mxGeometry x="621" y="1040" width="80" height="80" as="geometry" />
        </mxCell>
        <mxCell id="rsrEm_uVniqUEUr3GIda-218" style="edgeStyle=orthogonalEdgeStyle;rounded=0;orthogonalLoop=1;jettySize=auto;html=1;endArrow=none;endFill=0;" edge="1" parent="WIyWlLk6GJQsqaUBKTNV-1" source="rsrEm_uVniqUEUr3GIda-186">
          <mxGeometry relative="1" as="geometry">
            <mxPoint x="367.41366682381476" y="1080" as="targetPoint" />
          </mxGeometry>
        </mxCell>
        <mxCell id="rsrEm_uVniqUEUr3GIda-186" value="Menambahkan tugas&lt;div&gt;&lt;span style=&quot;background-color: initial;&quot;&gt;ke dalam&amp;nbsp;&lt;/span&gt;&lt;span style=&quot;background-color: initial;&quot;&gt;data_tugas&lt;/span&gt;&lt;/div&gt;" style="rounded=1;whiteSpace=wrap;html=1;absoluteArcSize=1;arcSize=14;strokeWidth=2;fillColor=#d5e8d4;strokeColor=#82b366;" vertex="1" parent="WIyWlLk6GJQsqaUBKTNV-1">
          <mxGeometry x="441" y="1060" width="130" height="40" as="geometry" />
        </mxCell>
        <mxCell id="rsrEm_uVniqUEUr3GIda-187" value="" style="edgeStyle=orthogonalEdgeStyle;rounded=0;orthogonalLoop=1;jettySize=auto;html=1;" edge="1" parent="WIyWlLk6GJQsqaUBKTNV-1" source="rsrEm_uVniqUEUr3GIda-189" target="rsrEm_uVniqUEUr3GIda-191">
          <mxGeometry relative="1" as="geometry" />
        </mxCell>
        <mxCell id="rsrEm_uVniqUEUr3GIda-188" value="" style="edgeStyle=orthogonalEdgeStyle;rounded=0;orthogonalLoop=1;jettySize=auto;html=1;" edge="1" parent="WIyWlLk6GJQsqaUBKTNV-1" source="rsrEm_uVniqUEUr3GIda-189" target="rsrEm_uVniqUEUr3GIda-194">
          <mxGeometry relative="1" as="geometry" />
        </mxCell>
        <mxCell id="rsrEm_uVniqUEUr3GIda-189" value="Tampilkan Tugas" style="strokeWidth=2;html=1;shape=mxgraph.flowchart.decision;whiteSpace=wrap;fillColor=#ffe6cc;strokeColor=#d79b00;" vertex="1" parent="WIyWlLk6GJQsqaUBKTNV-1">
          <mxGeometry x="621" y="1160" width="80" height="80" as="geometry" />
        </mxCell>
        <mxCell id="rsrEm_uVniqUEUr3GIda-219" style="edgeStyle=orthogonalEdgeStyle;rounded=0;orthogonalLoop=1;jettySize=auto;html=1;endArrow=none;endFill=0;" edge="1" parent="WIyWlLk6GJQsqaUBKTNV-1" source="rsrEm_uVniqUEUr3GIda-191">
          <mxGeometry relative="1" as="geometry">
            <mxPoint x="366.8619511045258" y="1200.0000000000002" as="targetPoint" />
          </mxGeometry>
        </mxCell>
        <mxCell id="rsrEm_uVniqUEUr3GIda-191" value="Menampilkan isi&lt;div&gt;data_tugas&lt;/div&gt;" style="shape=parallelogram;html=1;strokeWidth=2;perimeter=parallelogramPerimeter;whiteSpace=wrap;rounded=1;arcSize=12;size=0.23;fontSize=12;fillColor=#dae8fc;strokeColor=#6c8ebf;" vertex="1" parent="WIyWlLk6GJQsqaUBKTNV-1">
          <mxGeometry x="416" y="1182.19" width="180" height="35.62" as="geometry" />
        </mxCell>
        <mxCell id="rsrEm_uVniqUEUr3GIda-192" value="" style="edgeStyle=orthogonalEdgeStyle;rounded=0;orthogonalLoop=1;jettySize=auto;html=1;" edge="1" parent="WIyWlLk6GJQsqaUBKTNV-1" source="rsrEm_uVniqUEUr3GIda-194" target="rsrEm_uVniqUEUr3GIda-196">
          <mxGeometry relative="1" as="geometry" />
        </mxCell>
        <mxCell id="rsrEm_uVniqUEUr3GIda-193" value="" style="edgeStyle=orthogonalEdgeStyle;rounded=0;orthogonalLoop=1;jettySize=auto;html=1;" edge="1" parent="WIyWlLk6GJQsqaUBKTNV-1" source="rsrEm_uVniqUEUr3GIda-194" target="rsrEm_uVniqUEUr3GIda-199">
          <mxGeometry relative="1" as="geometry" />
        </mxCell>
        <mxCell id="rsrEm_uVniqUEUr3GIda-194" value="Ubah&lt;div&gt;Tugas&lt;/div&gt;" style="strokeWidth=2;html=1;shape=mxgraph.flowchart.decision;whiteSpace=wrap;fillColor=#ffe6cc;strokeColor=#d79b00;" vertex="1" parent="WIyWlLk6GJQsqaUBKTNV-1">
          <mxGeometry x="621" y="1280" width="80" height="80" as="geometry" />
        </mxCell>
        <mxCell id="rsrEm_uVniqUEUr3GIda-220" style="edgeStyle=orthogonalEdgeStyle;rounded=0;orthogonalLoop=1;jettySize=auto;html=1;endArrow=none;endFill=0;" edge="1" parent="WIyWlLk6GJQsqaUBKTNV-1" source="rsrEm_uVniqUEUr3GIda-196">
          <mxGeometry relative="1" as="geometry">
            <mxPoint x="367.41366682381476" y="1320" as="targetPoint" />
          </mxGeometry>
        </mxCell>
        <mxCell id="rsrEm_uVniqUEUr3GIda-196" value="Mengubah tugas yang sudah ada di dalam data_tugas" style="rounded=1;whiteSpace=wrap;html=1;absoluteArcSize=1;arcSize=14;strokeWidth=2;fillColor=#d5e8d4;strokeColor=#82b366;" vertex="1" parent="WIyWlLk6GJQsqaUBKTNV-1">
          <mxGeometry x="436" y="1291" width="140" height="59" as="geometry" />
        </mxCell>
        <mxCell id="rsrEm_uVniqUEUr3GIda-197" value="" style="edgeStyle=orthogonalEdgeStyle;rounded=0;orthogonalLoop=1;jettySize=auto;html=1;" edge="1" parent="WIyWlLk6GJQsqaUBKTNV-1" source="rsrEm_uVniqUEUr3GIda-199" target="rsrEm_uVniqUEUr3GIda-201">
          <mxGeometry relative="1" as="geometry" />
        </mxCell>
        <mxCell id="rsrEm_uVniqUEUr3GIda-198" value="" style="edgeStyle=orthogonalEdgeStyle;rounded=0;orthogonalLoop=1;jettySize=auto;html=1;" edge="1" parent="WIyWlLk6GJQsqaUBKTNV-1" source="rsrEm_uVniqUEUr3GIda-199" target="rsrEm_uVniqUEUr3GIda-210">
          <mxGeometry relative="1" as="geometry" />
        </mxCell>
        <mxCell id="rsrEm_uVniqUEUr3GIda-199" value="Hapus&lt;div&gt;Tugas&lt;/div&gt;" style="strokeWidth=2;html=1;shape=mxgraph.flowchart.decision;whiteSpace=wrap;fillColor=#ffe6cc;strokeColor=#d79b00;" vertex="1" parent="WIyWlLk6GJQsqaUBKTNV-1">
          <mxGeometry x="621" y="1400" width="80" height="80" as="geometry" />
        </mxCell>
        <mxCell id="rsrEm_uVniqUEUr3GIda-221" style="edgeStyle=orthogonalEdgeStyle;rounded=0;orthogonalLoop=1;jettySize=auto;html=1;endArrow=none;endFill=0;" edge="1" parent="WIyWlLk6GJQsqaUBKTNV-1" source="rsrEm_uVniqUEUr3GIda-201">
          <mxGeometry relative="1" as="geometry">
            <mxPoint x="366.8619511045258" y="1440" as="targetPoint" />
          </mxGeometry>
        </mxCell>
        <mxCell id="rsrEm_uVniqUEUr3GIda-201" value="Menghapus tugas yang sudah ada di dalam data_tugas" style="rounded=1;whiteSpace=wrap;html=1;absoluteArcSize=1;arcSize=14;strokeWidth=2;fillColor=#d5e8d4;strokeColor=#82b366;" vertex="1" parent="WIyWlLk6GJQsqaUBKTNV-1">
          <mxGeometry x="436" y="1410" width="140" height="61" as="geometry" />
        </mxCell>
        <mxCell id="rsrEm_uVniqUEUr3GIda-202" value="Yes" style="text;html=1;align=center;verticalAlign=middle;resizable=0;points=[];autosize=1;strokeColor=none;fillColor=none;" vertex="1" parent="WIyWlLk6GJQsqaUBKTNV-1">
          <mxGeometry x="585" y="1053" width="40" height="30" as="geometry" />
        </mxCell>
        <mxCell id="rsrEm_uVniqUEUr3GIda-203" value="Yes" style="text;html=1;align=center;verticalAlign=middle;resizable=0;points=[];autosize=1;strokeColor=none;fillColor=none;" vertex="1" parent="WIyWlLk6GJQsqaUBKTNV-1">
          <mxGeometry x="591" y="1173" width="40" height="30" as="geometry" />
        </mxCell>
        <mxCell id="rsrEm_uVniqUEUr3GIda-204" value="No" style="text;html=1;align=center;verticalAlign=middle;resizable=0;points=[];autosize=1;strokeColor=none;fillColor=none;" vertex="1" parent="WIyWlLk6GJQsqaUBKTNV-1">
          <mxGeometry x="661" y="1116" width="40" height="30" as="geometry" />
        </mxCell>
        <mxCell id="rsrEm_uVniqUEUr3GIda-205" value="No" style="text;html=1;align=center;verticalAlign=middle;resizable=0;points=[];autosize=1;strokeColor=none;fillColor=none;" vertex="1" parent="WIyWlLk6GJQsqaUBKTNV-1">
          <mxGeometry x="661" y="1240" width="40" height="30" as="geometry" />
        </mxCell>
        <mxCell id="rsrEm_uVniqUEUr3GIda-206" value="No" style="text;html=1;align=center;verticalAlign=middle;resizable=0;points=[];autosize=1;strokeColor=none;fillColor=none;" vertex="1" parent="WIyWlLk6GJQsqaUBKTNV-1">
          <mxGeometry x="661" y="1360" width="40" height="30" as="geometry" />
        </mxCell>
        <mxCell id="rsrEm_uVniqUEUr3GIda-207" value="Yes" style="text;html=1;align=center;verticalAlign=middle;resizable=0;points=[];autosize=1;strokeColor=none;fillColor=none;" vertex="1" parent="WIyWlLk6GJQsqaUBKTNV-1">
          <mxGeometry x="586" y="1290" width="40" height="30" as="geometry" />
        </mxCell>
        <mxCell id="rsrEm_uVniqUEUr3GIda-208" value="Yes" style="text;html=1;align=center;verticalAlign=middle;resizable=0;points=[];autosize=1;strokeColor=none;fillColor=none;" vertex="1" parent="WIyWlLk6GJQsqaUBKTNV-1">
          <mxGeometry x="585" y="1411" width="40" height="30" as="geometry" />
        </mxCell>
        <mxCell id="rsrEm_uVniqUEUr3GIda-217" style="edgeStyle=orthogonalEdgeStyle;rounded=0;orthogonalLoop=1;jettySize=auto;html=1;entryX=0.625;entryY=1;entryDx=0;entryDy=0;" edge="1" parent="WIyWlLk6GJQsqaUBKTNV-1" source="rsrEm_uVniqUEUr3GIda-210" target="rsrEm_uVniqUEUr3GIda-142">
          <mxGeometry relative="1" as="geometry">
            <mxPoint x="448.20013427734375" y="1264.0000305175781" as="targetPoint" />
          </mxGeometry>
        </mxCell>
        <mxCell id="rsrEm_uVniqUEUr3GIda-265" style="edgeStyle=orthogonalEdgeStyle;rounded=0;orthogonalLoop=1;jettySize=auto;html=1;entryX=0.375;entryY=1;entryDx=0;entryDy=0;" edge="1" parent="WIyWlLk6GJQsqaUBKTNV-1" source="rsrEm_uVniqUEUr3GIda-210" target="rsrEm_uVniqUEUr3GIda-142">
          <mxGeometry relative="1" as="geometry">
            <Array as="points">
              <mxPoint x="661" y="1655" />
              <mxPoint x="327" y="1655" />
            </Array>
          </mxGeometry>
        </mxCell>
        <mxCell id="rsrEm_uVniqUEUr3GIda-210" value="Keluar&lt;div&gt;Program&lt;/div&gt;" style="strokeWidth=2;html=1;shape=mxgraph.flowchart.decision;whiteSpace=wrap;fillColor=#ffe6cc;strokeColor=#d79b00;" vertex="1" parent="WIyWlLk6GJQsqaUBKTNV-1">
          <mxGeometry x="621" y="1535" width="80" height="80" as="geometry" />
        </mxCell>
        <mxCell id="rsrEm_uVniqUEUr3GIda-211" value="No" style="text;html=1;align=center;verticalAlign=middle;resizable=0;points=[];autosize=1;strokeColor=none;fillColor=none;" vertex="1" parent="WIyWlLk6GJQsqaUBKTNV-1">
          <mxGeometry x="661" y="1475" width="40" height="30" as="geometry" />
        </mxCell>
        <mxCell id="rsrEm_uVniqUEUr3GIda-212" value="Yes" style="text;html=1;align=center;verticalAlign=middle;resizable=0;points=[];autosize=1;strokeColor=none;fillColor=none;" vertex="1" parent="WIyWlLk6GJQsqaUBKTNV-1">
          <mxGeometry x="616" y="1624" width="40" height="30" as="geometry" />
        </mxCell>
        <mxCell id="rsrEm_uVniqUEUr3GIda-213" value="No" style="text;html=1;align=center;verticalAlign=middle;resizable=0;points=[];autosize=1;strokeColor=none;fillColor=none;" vertex="1" parent="WIyWlLk6GJQsqaUBKTNV-1">
          <mxGeometry x="591" y="1542" width="40" height="30" as="geometry" />
        </mxCell>
        <mxCell id="rsrEm_uVniqUEUr3GIda-255" style="edgeStyle=orthogonalEdgeStyle;rounded=0;orthogonalLoop=1;jettySize=auto;html=1;exitX=1;exitY=0.75;exitDx=0;exitDy=0;entryX=0.5;entryY=0;entryDx=0;entryDy=0;" edge="1" parent="WIyWlLk6GJQsqaUBKTNV-1" source="rsrEm_uVniqUEUr3GIda-223" target="rsrEm_uVniqUEUr3GIda-227">
          <mxGeometry relative="1" as="geometry" />
        </mxCell>
        <mxCell id="rsrEm_uVniqUEUr3GIda-264" style="edgeStyle=orthogonalEdgeStyle;rounded=0;orthogonalLoop=1;jettySize=auto;html=1;exitX=0;exitY=0.75;exitDx=0;exitDy=0;endArrow=none;endFill=0;" edge="1" parent="WIyWlLk6GJQsqaUBKTNV-1">
          <mxGeometry relative="1" as="geometry">
            <mxPoint x="44" y="845" as="targetPoint" />
            <mxPoint x="730.7952755905512" y="549.0041732283463" as="sourcePoint" />
            <Array as="points">
              <mxPoint x="731" y="1698" />
              <mxPoint x="44" y="1698" />
            </Array>
          </mxGeometry>
        </mxCell>
        <mxCell id="rsrEm_uVniqUEUr3GIda-223" value="While True" style="verticalLabelPosition=middle;verticalAlign=middle;html=1;shape=hexagon;perimeter=hexagonPerimeter2;arcSize=6;size=0.27;whiteSpace=wrap;labelPosition=center;align=center;fillColor=#f8cecc;strokeColor=#b85450;" vertex="1" parent="WIyWlLk6GJQsqaUBKTNV-1">
          <mxGeometry x="719" y="519.75" width="158" height="59" as="geometry" />
        </mxCell>
        <mxCell id="rsrEm_uVniqUEUr3GIda-224" value="True" style="text;html=1;align=center;verticalAlign=middle;resizable=0;points=[];autosize=1;strokeColor=none;fillColor=none;" vertex="1" parent="WIyWlLk6GJQsqaUBKTNV-1">
          <mxGeometry x="857" y="570" width="42" height="26" as="geometry" />
        </mxCell>
        <mxCell id="rsrEm_uVniqUEUr3GIda-276" style="edgeStyle=orthogonalEdgeStyle;rounded=0;orthogonalLoop=1;jettySize=auto;html=1;entryX=0.5;entryY=0;entryDx=0;entryDy=0;" edge="1" parent="WIyWlLk6GJQsqaUBKTNV-1" source="rsrEm_uVniqUEUr3GIda-227" target="rsrEm_uVniqUEUr3GIda-275">
          <mxGeometry relative="1" as="geometry" />
        </mxCell>
        <mxCell id="rsrEm_uVniqUEUr3GIda-227" value="Menu To Do&lt;div&gt;List User&lt;/div&gt;" style="shape=parallelogram;html=1;strokeWidth=2;perimeter=parallelogramPerimeter;whiteSpace=wrap;rounded=1;arcSize=12;size=0.23;fontSize=12;fillColor=#dae8fc;strokeColor=#6c8ebf;" vertex="1" parent="WIyWlLk6GJQsqaUBKTNV-1">
          <mxGeometry x="795" y="603" width="131" height="42.5" as="geometry" />
        </mxCell>
        <mxCell id="rsrEm_uVniqUEUr3GIda-228" value="" style="edgeStyle=orthogonalEdgeStyle;rounded=0;orthogonalLoop=1;jettySize=auto;html=1;" edge="1" source="rsrEm_uVniqUEUr3GIda-230" target="rsrEm_uVniqUEUr3GIda-233" parent="WIyWlLk6GJQsqaUBKTNV-1">
          <mxGeometry relative="1" as="geometry" />
        </mxCell>
        <mxCell id="rsrEm_uVniqUEUr3GIda-229" value="" style="edgeStyle=orthogonalEdgeStyle;rounded=0;orthogonalLoop=1;jettySize=auto;html=1;" edge="1" source="rsrEm_uVniqUEUr3GIda-230" target="rsrEm_uVniqUEUr3GIda-239" parent="WIyWlLk6GJQsqaUBKTNV-1">
          <mxGeometry relative="1" as="geometry" />
        </mxCell>
        <mxCell id="rsrEm_uVniqUEUr3GIda-230" value="Tambah Tugas" style="strokeWidth=2;html=1;shape=mxgraph.flowchart.decision;whiteSpace=wrap;fillColor=#ffe6cc;strokeColor=#d79b00;" vertex="1" parent="WIyWlLk6GJQsqaUBKTNV-1">
          <mxGeometry x="820.5" y="784" width="80" height="80" as="geometry" />
        </mxCell>
        <mxCell id="rsrEm_uVniqUEUr3GIda-231" value="" style="edgeStyle=orthogonalEdgeStyle;rounded=0;orthogonalLoop=1;jettySize=auto;html=1;" edge="1" source="rsrEm_uVniqUEUr3GIda-233" target="rsrEm_uVniqUEUr3GIda-237" parent="WIyWlLk6GJQsqaUBKTNV-1">
          <mxGeometry relative="1" as="geometry" />
        </mxCell>
        <mxCell id="rsrEm_uVniqUEUr3GIda-232" value="" style="edgeStyle=orthogonalEdgeStyle;rounded=0;orthogonalLoop=1;jettySize=auto;html=1;" edge="1" source="rsrEm_uVniqUEUr3GIda-233" target="rsrEm_uVniqUEUr3GIda-242" parent="WIyWlLk6GJQsqaUBKTNV-1">
          <mxGeometry relative="1" as="geometry" />
        </mxCell>
        <mxCell id="rsrEm_uVniqUEUr3GIda-233" value="Tampilkan Tugas" style="strokeWidth=2;html=1;shape=mxgraph.flowchart.decision;whiteSpace=wrap;fillColor=#ffe6cc;strokeColor=#d79b00;" vertex="1" parent="WIyWlLk6GJQsqaUBKTNV-1">
          <mxGeometry x="820.5" y="904" width="80" height="80" as="geometry" />
        </mxCell>
        <mxCell id="rsrEm_uVniqUEUr3GIda-234" value="Yes" style="text;html=1;align=center;verticalAlign=middle;resizable=0;points=[];autosize=1;strokeColor=none;fillColor=none;" vertex="1" parent="WIyWlLk6GJQsqaUBKTNV-1">
          <mxGeometry x="900.5" y="797" width="40" height="30" as="geometry" />
        </mxCell>
        <mxCell id="rsrEm_uVniqUEUr3GIda-235" value="No" style="text;html=1;align=center;verticalAlign=middle;resizable=0;points=[];autosize=1;strokeColor=none;fillColor=none;" vertex="1" parent="WIyWlLk6GJQsqaUBKTNV-1">
          <mxGeometry x="822.75" y="860" width="40" height="30" as="geometry" />
        </mxCell>
        <mxCell id="rsrEm_uVniqUEUr3GIda-236" value="No" style="text;html=1;align=center;verticalAlign=middle;resizable=0;points=[];autosize=1;strokeColor=none;fillColor=none;" vertex="1" parent="WIyWlLk6GJQsqaUBKTNV-1">
          <mxGeometry x="822.75" y="984" width="40" height="30" as="geometry" />
        </mxCell>
        <mxCell id="rsrEm_uVniqUEUr3GIda-250" style="edgeStyle=orthogonalEdgeStyle;rounded=0;orthogonalLoop=1;jettySize=auto;html=1;entryX=1;entryY=0.5;entryDx=0;entryDy=0;exitX=1;exitY=0.5;exitDx=0;exitDy=0;exitPerimeter=0;" edge="1" parent="WIyWlLk6GJQsqaUBKTNV-1" source="rsrEm_uVniqUEUr3GIda-237" target="rsrEm_uVniqUEUr3GIda-223">
          <mxGeometry relative="1" as="geometry">
            <mxPoint x="1148" y="554" as="targetPoint" />
            <Array as="points">
              <mxPoint x="1148" y="1064" />
              <mxPoint x="1148" y="549" />
            </Array>
          </mxGeometry>
        </mxCell>
        <mxCell id="rsrEm_uVniqUEUr3GIda-258" style="edgeStyle=orthogonalEdgeStyle;rounded=0;orthogonalLoop=1;jettySize=auto;html=1;entryX=0.375;entryY=1;entryDx=0;entryDy=0;" edge="1" parent="WIyWlLk6GJQsqaUBKTNV-1" source="rsrEm_uVniqUEUr3GIda-237" target="rsrEm_uVniqUEUr3GIda-223">
          <mxGeometry relative="1" as="geometry">
            <mxPoint x="778.2500000000005" y="611.7500000000002" as="targetPoint" />
            <Array as="points">
              <mxPoint x="778" y="1063" />
            </Array>
          </mxGeometry>
        </mxCell>
        <mxCell id="rsrEm_uVniqUEUr3GIda-237" value="Keluar&lt;div&gt;Program&lt;/div&gt;" style="strokeWidth=2;html=1;shape=mxgraph.flowchart.decision;whiteSpace=wrap;fillColor=#ffe6cc;strokeColor=#d79b00;" vertex="1" parent="WIyWlLk6GJQsqaUBKTNV-1">
          <mxGeometry x="820.5" y="1024" width="80" height="80" as="geometry" />
        </mxCell>
        <mxCell id="rsrEm_uVniqUEUr3GIda-256" style="edgeStyle=orthogonalEdgeStyle;rounded=0;orthogonalLoop=1;jettySize=auto;html=1;endArrow=none;endFill=0;" edge="1" parent="WIyWlLk6GJQsqaUBKTNV-1" source="rsrEm_uVniqUEUr3GIda-239">
          <mxGeometry relative="1" as="geometry">
            <mxPoint x="1147.9413344439336" y="824" as="targetPoint" />
          </mxGeometry>
        </mxCell>
        <mxCell id="rsrEm_uVniqUEUr3GIda-239" value="Menambahkan tugas&lt;div&gt;&lt;span style=&quot;background-color: initial;&quot;&gt;ke dalam data&lt;/span&gt;&lt;/div&gt;" style="rounded=1;whiteSpace=wrap;html=1;absoluteArcSize=1;arcSize=14;strokeWidth=2;fillColor=#d5e8d4;strokeColor=#82b366;" vertex="1" parent="WIyWlLk6GJQsqaUBKTNV-1">
          <mxGeometry x="960.5" y="804" width="130" height="40" as="geometry" />
        </mxCell>
        <mxCell id="rsrEm_uVniqUEUr3GIda-257" style="edgeStyle=orthogonalEdgeStyle;rounded=0;orthogonalLoop=1;jettySize=auto;html=1;endArrow=none;endFill=0;" edge="1" parent="WIyWlLk6GJQsqaUBKTNV-1" source="rsrEm_uVniqUEUr3GIda-242">
          <mxGeometry relative="1" as="geometry">
            <mxPoint x="1147.6668497721357" y="944.0000000000002" as="targetPoint" />
          </mxGeometry>
        </mxCell>
        <mxCell id="rsrEm_uVniqUEUr3GIda-242" value="Menampilkan isi data" style="shape=parallelogram;html=1;strokeWidth=2;perimeter=parallelogramPerimeter;whiteSpace=wrap;rounded=1;arcSize=12;size=0.23;fontSize=12;fillColor=#dae8fc;strokeColor=#6c8ebf;" vertex="1" parent="WIyWlLk6GJQsqaUBKTNV-1">
          <mxGeometry x="940.5" y="926.19" width="180" height="35.62" as="geometry" />
        </mxCell>
        <mxCell id="rsrEm_uVniqUEUr3GIda-243" value="Yes" style="text;html=1;align=center;verticalAlign=middle;resizable=0;points=[];autosize=1;strokeColor=none;fillColor=none;" vertex="1" parent="WIyWlLk6GJQsqaUBKTNV-1">
          <mxGeometry x="900.5" y="917" width="40" height="30" as="geometry" />
        </mxCell>
        <mxCell id="rsrEm_uVniqUEUr3GIda-244" value="Yes" style="text;html=1;align=center;verticalAlign=middle;resizable=0;points=[];autosize=1;strokeColor=none;fillColor=none;" vertex="1" parent="WIyWlLk6GJQsqaUBKTNV-1">
          <mxGeometry x="782.75" y="1062" width="40" height="30" as="geometry" />
        </mxCell>
        <mxCell id="rsrEm_uVniqUEUr3GIda-245" value="No" style="text;html=1;align=center;verticalAlign=middle;resizable=0;points=[];autosize=1;strokeColor=none;fillColor=none;" vertex="1" parent="WIyWlLk6GJQsqaUBKTNV-1">
          <mxGeometry x="904.75" y="1066" width="40" height="30" as="geometry" />
        </mxCell>
        <mxCell id="rsrEm_uVniqUEUr3GIda-262" value="False" style="text;html=1;align=center;verticalAlign=middle;resizable=0;points=[];autosize=1;strokeColor=none;fillColor=none;" vertex="1" parent="WIyWlLk6GJQsqaUBKTNV-1">
          <mxGeometry x="224" y="838" width="47" height="26" as="geometry" />
        </mxCell>
        <mxCell id="rsrEm_uVniqUEUr3GIda-263" value="False" style="text;html=1;align=center;verticalAlign=middle;resizable=0;points=[];autosize=1;strokeColor=none;fillColor=none;" vertex="1" parent="WIyWlLk6GJQsqaUBKTNV-1">
          <mxGeometry x="676" y="591" width="47" height="26" as="geometry" />
        </mxCell>
        <mxCell id="rsrEm_uVniqUEUr3GIda-267" value="&lt;font style=&quot;font-size: 15px;&quot;&gt;End&lt;/font&gt;" style="strokeWidth=2;html=1;shape=mxgraph.flowchart.terminator;whiteSpace=wrap;fillColor=#f5f5f5;strokeColor=#666666;fontColor=#333333;" vertex="1" parent="WIyWlLk6GJQsqaUBKTNV-1">
          <mxGeometry x="-102" y="1601" width="80" height="40" as="geometry" />
        </mxCell>
        <mxCell id="rsrEm_uVniqUEUr3GIda-268" value="False" style="text;html=1;align=center;verticalAlign=middle;resizable=0;points=[];autosize=1;strokeColor=none;fillColor=none;" vertex="1" parent="WIyWlLk6GJQsqaUBKTNV-1">
          <mxGeometry x="-54" y="410" width="47" height="26" as="geometry" />
        </mxCell>
        <mxCell id="rsrEm_uVniqUEUr3GIda-271" style="edgeStyle=orthogonalEdgeStyle;rounded=0;orthogonalLoop=1;jettySize=auto;html=1;" edge="1" parent="WIyWlLk6GJQsqaUBKTNV-1">
          <mxGeometry relative="1" as="geometry">
            <mxPoint x="249" y="755.5699999999999" as="targetPoint" />
            <mxPoint x="216.99999999999994" y="755.5699999999999" as="sourcePoint" />
          </mxGeometry>
        </mxCell>
        <mxCell id="rsrEm_uVniqUEUr3GIda-272" style="edgeStyle=orthogonalEdgeStyle;rounded=0;orthogonalLoop=1;jettySize=auto;html=1;" edge="1" parent="WIyWlLk6GJQsqaUBKTNV-1">
          <mxGeometry relative="1" as="geometry">
            <mxPoint x="721" y="885.5699999999999" as="targetPoint" />
            <mxPoint x="689" y="885.5699999999999" as="sourcePoint" />
          </mxGeometry>
        </mxCell>
        <mxCell id="rsrEm_uVniqUEUr3GIda-273" style="edgeStyle=orthogonalEdgeStyle;rounded=0;orthogonalLoop=1;jettySize=auto;html=1;" edge="1" parent="WIyWlLk6GJQsqaUBKTNV-1">
          <mxGeometry relative="1" as="geometry">
            <mxPoint x="923" y="644.5699999999999" as="targetPoint" />
            <mxPoint x="891" y="644.5699999999999" as="sourcePoint" />
          </mxGeometry>
        </mxCell>
        <mxCell id="rsrEm_uVniqUEUr3GIda-274" style="edgeStyle=orthogonalEdgeStyle;rounded=0;orthogonalLoop=1;jettySize=auto;html=1;" edge="1" parent="WIyWlLk6GJQsqaUBKTNV-1">
          <mxGeometry relative="1" as="geometry">
            <mxPoint x="826.5" y="701.5" as="targetPoint" />
            <mxPoint x="794.5" y="701.5" as="sourcePoint" />
          </mxGeometry>
        </mxCell>
        <mxCell id="rsrEm_uVniqUEUr3GIda-275" value="pilihan menu" style="shape=parallelogram;html=1;strokeWidth=2;perimeter=parallelogramPerimeter;whiteSpace=wrap;rounded=1;arcSize=12;size=0.23;fillColor=#dae8fc;strokeColor=#6c8ebf;" vertex="1" parent="WIyWlLk6GJQsqaUBKTNV-1">
          <mxGeometry x="796.5" y="701" width="130" height="50" as="geometry" />
        </mxCell>
        <mxCell id="rsrEm_uVniqUEUr3GIda-277" style="edgeStyle=orthogonalEdgeStyle;rounded=0;orthogonalLoop=1;jettySize=auto;html=1;entryX=0.5;entryY=0;entryDx=0;entryDy=0;entryPerimeter=0;" edge="1" parent="WIyWlLk6GJQsqaUBKTNV-1" source="rsrEm_uVniqUEUr3GIda-275" target="rsrEm_uVniqUEUr3GIda-230">
          <mxGeometry relative="1" as="geometry" />
        </mxCell>
        <mxCell id="rsrEm_uVniqUEUr3GIda-278" style="edgeStyle=orthogonalEdgeStyle;rounded=0;orthogonalLoop=1;jettySize=auto;html=1;" edge="1" parent="WIyWlLk6GJQsqaUBKTNV-1">
          <mxGeometry relative="1" as="geometry">
            <mxPoint x="626" y="947.5" as="targetPoint" />
            <mxPoint x="594" y="947.5" as="sourcePoint" />
          </mxGeometry>
        </mxCell>
        <mxCell id="rsrEm_uVniqUEUr3GIda-281" style="edgeStyle=orthogonalEdgeStyle;rounded=0;orthogonalLoop=1;jettySize=auto;html=1;" edge="1" parent="WIyWlLk6GJQsqaUBKTNV-1" source="rsrEm_uVniqUEUr3GIda-279" target="rsrEm_uVniqUEUr3GIda-184">
          <mxGeometry relative="1" as="geometry" />
        </mxCell>
        <mxCell id="rsrEm_uVniqUEUr3GIda-279" value="pilihan menu" style="shape=parallelogram;html=1;strokeWidth=2;perimeter=parallelogramPerimeter;whiteSpace=wrap;rounded=1;arcSize=12;size=0.23;fillColor=#dae8fc;strokeColor=#6c8ebf;" vertex="1" parent="WIyWlLk6GJQsqaUBKTNV-1">
          <mxGeometry x="596" y="947" width="130" height="50" as="geometry" />
        </mxCell>
        <mxCell id="rsrEm_uVniqUEUr3GIda-282" style="edgeStyle=orthogonalEdgeStyle;rounded=0;orthogonalLoop=1;jettySize=auto;html=1;" edge="1" parent="WIyWlLk6GJQsqaUBKTNV-1">
          <mxGeometry relative="1" as="geometry">
            <mxPoint x="584" y="1217.5" as="targetPoint" />
            <mxPoint x="552" y="1217.5" as="sourcePoint" />
          </mxGeometry>
        </mxCell>
        <mxCell id="rsrEm_uVniqUEUr3GIda-283" style="edgeStyle=orthogonalEdgeStyle;rounded=0;orthogonalLoop=1;jettySize=auto;html=1;" edge="1" parent="WIyWlLk6GJQsqaUBKTNV-1">
          <mxGeometry relative="1" as="geometry">
            <mxPoint x="1106" y="961.5" as="targetPoint" />
            <mxPoint x="1074" y="961.5" as="sourcePoint" />
          </mxGeometry>
        </mxCell>
      </root>
    </mxGraphModel>
  </diagram>
</mxfile>
